<?xml version="1.0" encoding="utf-8"?>
<!-- Generator: Adobe Illustrator 16.0.0, SVG Export Plug-In . SVG Version: 6.00 Build 0)  -->
<!DOCTYPE svg PUBLIC "-//W3C//DTD SVG 1.1//EN" "http://www.w3.org/Graphics/SVG/1.1/DTD/svg11.dtd">
<svg version="1.1" id="Layer_1" xmlns="http://www.w3.org/2000/svg" xmlns:xlink="http://www.w3.org/1999/xlink" x="0px" y="0px"
	 width="572px" height="368px" viewBox="0 0 572 368" enable-background="new 0 0 572 368" xml:space="preserve">
<path fill-rule="evenodd" clip-rule="evenodd" fill="none" d="M277.333,192.667c-2.37,9.183-11.795,13.857-18.686,18.748
	c-3.802,2.698-7.912,3.658-11.728,6.918c-3.073,2.626-5.494,5.141-9.919,5"/>
<path fill-rule="evenodd" clip-rule="evenodd" fill="none" d="M232.333,224.333c3.481,0.097,6.072-1.615,8.984-2.684
	c2.583-0.946,6.049-2.866,8.683-2.982"/>
<path fill-rule="evenodd" clip-rule="evenodd" fill="none" d="M254.333,216.667c1.906-0.525,3.064-2.115,4.667-3"/>
<g>
	<path fill-rule="evenodd" clip-rule="evenodd" fill="#FBFDFB" d="M286.469,369.335c-93.808,0-187.616-0.021-281.424,0.089
		c-3.325,0.004-4.148-0.527-4.145-4.043C1.021,245.08,1.027,124.778,0.88,4.478C0.876,0.573,2.045,0.262,5.355,0.264
		c187.784,0.08,375.567,0.082,563.351-0.016c3.482-0.002,4.405,0.561,4.4,4.291c-0.129,120.135-0.132,240.27,0.003,360.403
		c0.005,3.989-1.165,4.479-4.715,4.475C474.419,369.313,380.444,369.335,286.469,369.335z M465.854,183.356
		c0-15.331-0.061-30.664,0.056-45.995c0.021-2.813-0.445-4.26-3.699-4.229c-11.197,0.108-21.73-3.087-31.791-7.575
		c-20.639-9.207-42.156-14.292-64.731-14.92c-14.141-0.394-28.324-1.323-42.222,2.41c-10.574,2.841-14.482,8.881-12.462,19.633
		c0.873,4.645,0.064,8.774-3.125,12.04c-5.752,5.889-6.15,12.758-3.846,19.911c1.732,5.375,0.615,9.338-3.705,12.755
		c-6.813,5.389-9.051,12.743-6.051,20.511c2.84,7.347,1.63,12.814-3.889,17.863c-0.482,0.441-0.817,1.048-1.201,1.592
		c-8.707,12.338-4.904,26.957,8.649,33.403c10.267,4.884,21.118,6.871,32.424,6.782c11.328-0.09,22.657-0.198,33.985-0.143
		c4.968,0.024,5.763,1.287,4.917,6.048c-1.865,10.491-8.099,18.776-13.429,27.602c-10.016,16.586-11.991,34.401-5.793,52.727
		c4.354,12.871,14.354,19.252,26.981,18.637c2.196-0.107,3.171-0.546,3.412-2.995c0.521-5.288,1.206-10.591,2.306-15.785
		c5.07-23.962,19.001-42.037,37.855-56.922c12.545-9.905,25.216-19.785,34.601-32.98c6.118-8.604,11.018-17.725,10.813-28.873
		C465.657,211.024,465.85,197.189,465.854,183.356z M181.168,253.399c-3.664-9.967-2.138-18.44,5.492-25.422
		c1.251-1.145,1.27-1.977,0.281-3.329c-6.534-8.942-5.205-20.276,3.32-27.827c1.294-1.146,1.639-1.774,0.474-3.549
		c-7.563-11.514-5.936-22.973,4.567-31.376c2.297-1.838,1.927-2.795,0.725-4.945c-8.063-14.425,1.843-31.514,18.343-31.685
		c11.661-0.121,23.325,0.051,34.986-0.051c4.758-0.042,8.344,1.96,11.056,5.639c0.824,1.118,2.283,2.51,1.308,3.978
		c-0.75,1.131-2.464,0.477-3.737,0.479c-14.496,0.035-28.992-0.037-43.488,0.048c-7.288,0.044-11.789,5.26-10.956,12.379
		c0.732,6.264,4.782,9.672,12.508,10.575c11.624,1.357,23.295,0.741,34.932,0.562c6.606-0.103,13.324-0.526,19.736-2.586
		c4.316-1.387,8.565-3.034,10.987-7.229c7.36-12.745,0.167-32.056-13.712-36.853c-7.303-2.523-14.915-3.419-22.577-3.688
		c-12.819-0.449-25.627-0.129-38.441,0.594c-7.916,0.446-8.785-0.992-7.069-8.516c2.248-9.857,8.771-17.408,13.517-25.937
		c9.368-16.833,11.706-34.554,4.551-52.766c-4.696-11.953-14.895-18.278-26.345-17.613c-2.488,0.145-3.447,0.885-3.605,3.479
		c-0.283,4.64-0.742,9.304-1.611,13.865c-4.563,23.946-18.219,42.054-36.801,57.008c-12.322,9.916-24.884,19.605-34.614,32.3
		c-5.933,7.739-11.612,16.11-11.791,25.944c-0.556,30.647-0.184,61.313-0.244,91.97c-0.004,2.385,0.345,3.545,3.185,3.587
		c9.454,0.141,18.329,2.773,26.899,6.701c7.398,3.391,14.875,6.63,22.421,9.676C163.543,252.075,172,253.477,181.168,253.399z
		 M476.838,181.89c0,15.977,0.258,31.959-0.152,47.925c-0.128,4.952,1.629,6.714,6.049,7.587
		c14.691,2.905,29.414,2.781,44.178,0.896c10.613-1.355,11.063-2.104,9.631-12.68c-4.192-30.967-8.348-61.943-9.487-93.217
		c-0.117-3.211-1.333-4.854-4.306-5.593c-13.98-3.471-27.936-3.544-41.922,0.027c-3.107,0.793-4.101,2.395-4.067,5.628
		C476.93,148.938,476.838,165.414,476.838,181.89z M92.01,184.329c0-16.493-0.039-32.985,0.041-49.479
		c0.013-2.554-0.195-4.438-3.208-5.153c-17.8-4.223-35.58-4.198-53.406-0.183c-3.11,0.7-3.853,2.43-3.432,5.36
		c0.947,6.587,1.655,13.208,2.552,19.802c3.568,26.221,6.899,52.469,7.342,78.968c0.063,3.732,1.774,5.035,4.808,5.675
		c13.53,2.853,27.063,2.914,40.614,0.07c3.399-0.713,4.868-2.229,4.809-6.084C91.878,216.983,92.023,200.655,92.01,184.329z
		 M231.162,192.359c10.468-0.151,21.002,0.484,31.321-2.001c10.715-2.58,15.109-11.758,10.72-21.983
		c-0.798-1.86-1.818-2.181-3.416-1.861c-9.528,1.905-19.192,2.05-28.844,2.11c-9.967,0.062-19.995,1.094-29.855-1.309
		c-5.62-1.369-9.807,0.602-13.126,6.265c-2.707,4.618-2.435,10.466,0.932,13.967c3.305,3.438,7.749,4.569,12.28,4.746
		C217.827,192.552,224.498,192.359,231.162,192.359z M220.495,225.303c10.839-1.474,22.906,0.13,34.665-2.881
		c9.624-2.465,13.903-9.055,11.807-18.855c-0.623-2.91-1.374-5.013-5.168-3.418c-2.085,0.876-4.523,1.053-6.827,1.246
		c-16.242,1.364-32.488,1.788-48.745,0.14c-6.762-0.687-12.192,3.001-13.15,8.728c-1.106,6.607,2.137,11.445,9.107,13.201
		C207.846,224.889,213.661,225.175,220.495,225.303z M221.66,256.372c5.605,0.276,12.576-0.354,19.524-1.12
		c11.533-1.273,16.763-7.552,15.971-18.618c-0.234-3.271-0.8-4.292-4.758-3.771c-17.305,2.279-34.688,4.13-52.101,0.659
		c-3.803-0.758-8.625,2.103-10.401,6.186c-1.776,4.082-1.175,7.848,2.155,10.922c2.103,1.941,4.686,3.027,7.415,3.947
		C206.274,256.872,213.281,256.286,221.66,256.372z"/>
	<path fill-rule="evenodd" clip-rule="evenodd" fill="#D39322" d="M181.168,253.399c-9.168,0.077-17.625-1.324-25.703-4.586
		c-7.546-3.046-15.022-6.285-22.421-9.676c-8.571-3.928-17.446-6.561-26.899-6.701c-2.839-0.042-3.189-1.202-3.185-3.587
		c0.06-30.657-0.313-61.322,0.244-91.97c0.179-9.834,5.858-18.205,11.791-25.944c9.73-12.694,22.292-22.384,34.614-32.3
		c18.582-14.954,32.239-33.062,36.801-57.008c0.869-4.562,1.328-9.226,1.611-13.865c0.158-2.595,1.117-3.335,3.605-3.479
		c11.45-0.665,21.649,5.66,26.345,17.613c7.155,18.212,4.817,35.933-4.551,52.766c-4.746,8.528-11.269,16.079-13.517,25.937
		c-1.716,7.523-0.847,8.962,7.069,8.516c12.813-0.723,25.622-1.043,38.441-0.594c7.662,0.269,15.273,1.164,22.577,3.688
		c13.879,4.797,21.073,24.107,13.712,36.853c-2.422,4.194-6.671,5.842-10.987,7.229c-6.412,2.06-13.13,2.483-19.736,2.586
		c-11.637,0.18-23.309,0.796-34.932-0.562c-7.727-0.903-11.776-4.312-12.508-10.575c-0.833-7.119,3.668-12.335,10.956-12.379
		c14.496-0.085,28.992-0.013,43.488-0.048c1.273-0.003,2.987,0.651,3.737-0.479c0.976-1.468-0.483-2.859-1.308-3.978
		c-2.712-3.679-6.297-5.681-11.056-5.639c-11.661,0.102-23.325-0.07-34.986,0.051c-16.5,0.171-26.406,17.26-18.343,31.685
		c1.202,2.15,1.572,3.107-0.725,4.945c-10.503,8.403-12.13,19.862-4.567,31.376c1.165,1.774,0.82,2.402-0.474,3.549
		c-8.525,7.551-9.854,18.885-3.32,27.827c0.989,1.353,0.97,2.185-0.281,3.329C179.03,234.959,177.504,243.433,181.168,253.399z"/>
	<path fill-rule="evenodd" clip-rule="evenodd" fill="#020202" d="M170.992,247.866c-9.168,0.077-4.664-1.27-12.742-4.531
		c-7.546-3.046-11.444-5.477-19-8.5c-10.667-4.268-12.637-6.067-22.091-6.208c-2.839-0.042-5.414-0.939-5.409-3.324
		c0.061-30.982-0.557-55.548,0-86.218c0.179-9.834-0.351-15.511,5.582-23.25c9.73-12.694,26.012-21.246,38.333-31.162
		c18.582-14.954,28.604-32.892,33.167-56.838c0.869-4.562,1.217-2.61,1.5-7.25c0.158-2.595,0.276-8.434,2.765-8.579
		c11.45-0.665,12.873,0.047,17.569,12c7.155,18.212,1.368,33.833-8,50.667c-4.746,8.528-4.958,15.555-7.206,25.412
		c-1.716,7.523,3.207,12.196,11.123,11.75c12.813-0.723,24.181-0.699,37-0.25c7.662,0.269,14.696,0.977,22,3.5
		c13.879,4.797,14.784,16.009,11.083,30c-1.238,4.683-3.517,5.113-7.833,6.5c-6.412,2.06-12.894,2.315-19.5,2.417
		c-11.637,0.18-18.377,0.691-30-0.667c-7.727-0.903-10.1,1.013-10.832-5.251c-0.833-7.119,1.545-7.372,8.832-7.416
		c14.496-0.085,21.837,0.451,36.333,0.416c1.273-0.003,9.583-1.285,10.333-2.416c0.976-1.468-0.092-8.732-0.917-9.851
		c-2.712-3.679-8.991-7.525-13.75-7.483c-11.661,0.102-25.999-1.998-37.333,0.667c-16.063,3.775-21.321,0.222-27.417,15.583
		c-1.313,3.309,3.297,19.912,1,21.75c-10.503,8.403-10.313,19.236-2.75,30.75c0,0-3.206-0.146-4.5,1
		c-8.525,7.551-11.227,16.64-4.692,25.582c0.989,1.353,6.632,9.522,4.942,9.668C162.823,227.693,167.329,237.899,170.992,247.866z"
		/>
	<path fill-rule="evenodd" clip-rule="evenodd" fill="#D39322" d="M92.017,184.329c0.006,16.326-0.139,32.654,0.113,48.977
		c0.059,3.854-1.41,5.371-4.809,6.084c-13.55,2.844-27.083,2.782-40.614-0.07c-3.034-0.64-4.746-1.942-4.808-5.675
		c-0.443-26.499-3.774-52.747-7.342-78.968c-0.897-6.594-1.605-13.215-2.552-19.802c-0.421-2.931,0.321-4.66,3.432-5.36
		c17.826-4.016,35.606-4.04,53.406,0.183c3.013,0.716,3.221,2.6,3.208,5.153C91.971,151.344,92.01,167.836,92.017,184.329z"/>
	<path fill-rule="evenodd" clip-rule="evenodd" fill="#D39322" d="M231.162,192.359c-6.664,0-13.335,0.192-19.988-0.066
		c-4.531-0.177-8.976-1.309-12.28-4.746c-3.366-3.501-3.639-9.349-0.932-13.967c3.319-5.663,7.506-7.634,13.126-6.265
		c9.86,2.402,19.888,1.37,29.855,1.309c9.652-0.061,19.316-0.205,28.844-2.11c1.597-0.319,2.617,0.001,3.416,1.861
		c4.389,10.226-0.004,19.403-10.72,21.983C252.164,192.844,241.629,192.208,231.162,192.359z"/>
	<path fill-rule="evenodd" clip-rule="evenodd" fill="#D39322" d="M220.495,225.303c-6.834-0.128-12.649-0.414-18.312-1.84
		c-6.97-1.756-10.213-6.594-9.107-13.201c0.958-5.727,6.389-9.414,13.15-8.728c16.257,1.648,32.503,1.225,48.745-0.14
		c2.304-0.193,4.742-0.37,6.827-1.246c3.794-1.595,4.546,0.508,5.168,3.418c2.096,9.801-2.183,16.391-11.807,18.855
		C243.401,225.433,231.334,223.829,220.495,225.303z"/>
	<path fill-rule="evenodd" clip-rule="evenodd" fill="#D39322" d="M221.66,256.372c-8.378-0.086-15.386,0.5-22.197-1.795
		c-2.729-0.92-5.312-2.006-7.415-3.947c-3.33-3.074-3.931-6.84-2.155-10.922c1.776-4.083,6.599-6.943,10.401-6.186
		c17.413,3.471,34.796,1.62,52.101-0.659c3.958-0.521,4.524,0.5,4.758,3.771c0.792,11.066-4.438,17.345-15.971,18.618
		C234.236,256.019,227.265,256.648,221.66,256.372z"/>
</g>
<path fill-rule="evenodd" clip-rule="evenodd" fill="#020202" d="M235.508,188.001c-6.664,0-14.521-0.408-21.174-0.667
	c-4.531-0.177-7.362,2.438-10.667-1c-3.366-3.501-5.04-6.382-2.333-11c3.319-5.663,4.38-6.965,10-5.596
	c9.86,2.402,19.866,1.657,29.833,1.596c9.652-0.061,12.305,0.905,21.833-1c1.597-0.319,5.07-1.388,5.868,0.473
	c4.389,10.226-4.379,14.3-9.868,15.86C248.682,189.152,245.976,187.85,235.508,188.001z"/>
<path fill-rule="evenodd" clip-rule="evenodd" fill="#020202" d="M228.386,222.058c-6.664,0-14.602-1.734-21.174-0.667
	c-3.27,0.531-5.524-1.012-6.212-1.681c-3.482-3.386-7.225-4.978-4.518-9.596c3.319-5.663,5.172-7.048,10.792-5.679
	c9.86,2.402,16.804,1.017,26.771,0.955c9.652-0.061,12.305,0.905,21.833-1c1.597-0.319,6.259-2.957,7.058-1.097
	c4.389,10.226-5.569,15.869-11.058,17.43C241.56,223.209,238.854,221.906,228.386,222.058z"/>
<path fill-rule="evenodd" clip-rule="evenodd" fill="#020202" d="M226.174,253.864c7.862,0-20.786-0.497-21.174-0.667
	c-5.015-2.196-5.568,0.574-8.873-2.863c-3.366-3.501-6.41-4.225-3.703-8.843c3.319-5.663,1.941-5.859,7.561-4.49
	c9.86,2.402,20.224,0.276,30.191,0.215c9.652-0.061,13.962,0.887,23.49-1.019c1.597-0.319-0.423-0.057,0.375,1.804
	c4.389,10.226-2.375,8-6.708,12C237.015,252.486,236.642,253.713,226.174,253.864z"/>
</svg>
